<?xml version="1.0" encoding="UTF-8"?>
<svg id="Layer_1" data-name="Layer 1" xmlns="http://www.w3.org/2000/svg" version="1.1" viewBox="0 0 595.28 841.89">
  <defs>
    <style>
      .cls-1 {
        fill: #f26522;
      }

      .cls-1, .cls-2 {
        stroke-width: 0px;
      }

      .cls-2 {
        fill: #8dc63f;
      }
    </style>
  </defs>
  <path class="cls-1" d="M127.31,427.04l9.09,25.65c.4,1.13,2.01,1.13,2.41,0l9.03-25.65c.18-.51.66-.85,1.2-.85h8.98c.7,0,1.28.57,1.28,1.28v38.68c0,.7-.57,1.28-1.28,1.28h-5.97c-.7,0-1.28-.57-1.28-1.28v-10l.49-11.13c.06-1.46-1.98-1.86-2.47-.49l-7.99,22.05c-.18.5-.66.84-1.2.84h-4.04c-.54,0-1.02-.34-1.2-.84l-7.96-22.01c-.5-1.37-2.54-.97-2.47.49l.48,11.09v10c0,.7-.57,1.28-1.28,1.28h-5.94c-.7,0-1.28-.57-1.28-1.28v-38.68c0-.7.57-1.28,1.28-1.28h8.92c.54,0,1.02.34,1.2.85Z"/>
  <path class="cls-1" d="M179.5,467.92c-4.96,0-8.99-1.56-12.07-4.69-3.08-3.13-4.62-7.29-4.62-12.49v-.97c0-3.48.67-6.59,2.01-9.33,1.34-2.74,3.23-4.87,5.66-6.4,2.43-1.53,5.13-2.29,8.12-2.29,4.75,0,8.42,1.51,11.01,4.54,2.59,3.03,3.88,7.32,3.88,12.86v1.88c0,.7-.57,1.28-1.28,1.28h-20.05c-.79,0-1.41.72-1.26,1.51.41,2.18,1.3,3.95,2.68,5.33,1.69,1.68,3.81,2.51,6.36,2.51,3.16,0,5.81-1.13,7.93-3.38.48-.51,1.29-.54,1.8-.05l2.44,2.33c.48.46.53,1.22.11,1.74-1.3,1.63-2.93,2.92-4.89,3.89-2.33,1.15-4.95,1.72-7.85,1.72ZM178.57,438.04c-2.15,0-3.88.75-5.2,2.26-1.05,1.2-1.8,2.78-2.25,4.73-.18.8.44,1.56,1.25,1.56h13.39v-.58c-.17-2.62-.87-4.6-2.09-5.95s-2.92-2.01-5.09-2.01Z"/>
  <path class="cls-1" d="M203.6,433.61h0c.06,1.05,1.28,1.56,2.1.9,2.26-1.83,5-2.75,8.21-2.75,7.26,0,10.96,4.16,11.09,12.47v21.77c0,.7-.57,1.28-1.28,1.28h-5.28c-.7,0-1.28-.57-1.28-1.28v-21.32c0-2.21-.48-3.85-1.43-4.91-.96-1.06-2.52-1.6-4.69-1.6-3.04,0-5.34,1.33-6.88,3.98-.11.2-.17.43-.17.66v23.19c0,.7-.57,1.28-1.28,1.28h-5.28c-.7,0-1.28-.57-1.28-1.28v-32.32c0-.7.57-1.28,1.28-1.28h4.9c.68,0,1.24.53,1.27,1.2Z"/>
  <path class="cls-1" d="M249.22,457.8c0-1.4-.58-2.46-1.72-3.19-1.15-.73-3.06-1.37-5.72-1.93-2.66-.56-4.89-1.27-6.67-2.13-3.91-1.89-5.87-4.63-5.87-8.22,0-3.01,1.27-5.52,3.8-7.54,2.53-2.02,5.76-3.03,9.67-3.03,4.17,0,7.54,1.03,10.1,3.09,2.19,1.76,3.45,3.97,3.77,6.62.09.75-.52,1.41-1.27,1.41h-5.32c-.62,0-1.13-.45-1.25-1.06-.21-1.04-.73-1.94-1.57-2.69-1.12-1-2.6-1.5-4.45-1.5-1.72,0-3.12.4-4.21,1.19-1.08.79-1.63,1.86-1.63,3.19,0,1.2.5,2.14,1.51,2.8,1.01.67,3.05,1.34,6.12,2.01,3.07.68,5.48,1.48,7.23,2.42,1.75.93,3.05,2.06,3.9,3.37.85,1.31,1.27,2.9,1.27,4.77,0,3.14-1.3,5.68-3.9,7.62-2.6,1.94-6.01,2.92-10.22,2.92-2.86,0-5.4-.52-7.64-1.55-2.23-1.03-3.98-2.45-5.22-4.25-.95-1.38-1.54-2.84-1.77-4.39-.11-.76.5-1.44,1.27-1.44h5.11c.61,0,1.12.44,1.25,1.04.27,1.35.93,2.43,1.96,3.23,1.29,1,3,1.5,5.12,1.5s3.63-.39,4.71-1.18c1.07-.78,1.61-1.81,1.61-3.08Z"/>
  <path class="cls-1" d="M317.38,427.04l9.09,25.65c.4,1.13,2.01,1.13,2.41,0l9.03-25.65c.18-.51.66-.85,1.2-.85h8.98c.7,0,1.28.57,1.28,1.28v38.68c0,.7-.57,1.28-1.28,1.28h-5.97c-.7,0-1.28-.57-1.28-1.28v-10l.49-11.13c.06-1.46-1.98-1.86-2.47-.49l-7.99,22.05c-.18.5-.66.84-1.2.84h-4.04c-.54,0-1.02-.34-1.2-.84l-7.96-22.01c-.5-1.37-2.54-.97-2.47.49l.48,11.09v10c0,.7-.57,1.28-1.28,1.28h-5.94c-.7,0-1.28-.57-1.28-1.28v-38.68c0-.7.57-1.28,1.28-1.28h8.92c.54,0,1.02.34,1.2.85Z"/>
  <path class="cls-1" d="M374.69,466.37c-.03-.1-.07-.21-.1-.32-.24-.85-1.28-1.19-1.99-.65-2.18,1.67-4.71,2.51-7.61,2.51-3.5,0-6.36-1-8.57-3s-3.32-4.47-3.32-7.41c0-3.72,1.38-6.57,4.14-8.56s6.71-2.98,11.84-2.98h3.53c.7,0,1.28-.57,1.28-1.28v-1.01c0-1.8-.5-3.25-1.51-4.33s-2.55-1.63-4.61-1.63c-1.78,0-3.24.45-4.38,1.34-.84.66-1.37,1.44-1.59,2.36-.14.59-.64,1.04-1.25,1.04h-5.31c-.78,0-1.4-.7-1.27-1.46.24-1.37.83-2.67,1.77-3.9,1.27-1.67,2.99-2.97,5.17-3.92,2.18-.95,4.61-1.42,7.3-1.42,4.08,0,7.34,1.03,9.76,3.08s3.67,4.94,3.74,8.65v15.73c0,3.14.44,5.64,1.32,7.51v.55h-7.13c-.56,0-1.05-.36-1.22-.9ZM366.45,461.63c1.55,0,3-.38,4.37-1.13,1.25-.69,2.22-1.6,2.9-2.72.12-.2.18-.43.18-.67v-4.94c0-.7-.57-1.28-1.28-1.28h-2.95c-2.9,0-5.08.5-6.54,1.51-1.46,1.01-2.19,2.44-2.19,4.29,0,1.5.5,2.7,1.5,3.59,1,.89,2.34,1.34,4.01,1.34Z"/>
  <path class="cls-1" d="M396.44,425.2v5.92c0,.7.57,1.28,1.28,1.28h3.6c.7,0,1.28.57,1.28,1.28v3.25c0,.7-.57,1.28-1.28,1.28h-3.6c-.7,0-1.28.57-1.28,1.28v18.19c0,1.33.26,2.29.79,2.88.53.59,1.47.89,2.82.89.44,0,.87-.03,1.31-.08.76-.09,1.43.49,1.43,1.26v3.56c0,.58-.4,1.11-.97,1.24-1.44.33-2.84.5-4.19.5-6.02,0-9.02-3.32-9.02-9.96v-18.48c0-.7-.57-1.28-1.28-1.28h-3.18c-.7,0-1.28-.57-1.28-1.28v-3.25c0-.7.57-1.28,1.28-1.28h3.18c.7,0,1.28-.57,1.28-1.28v-5.92c0-.7.57-1.28,1.28-1.28h5.28c.7,0,1.28.57,1.28,1.28Z"/>
  <path class="cls-1" d="M419.59,461.66c1.96,0,3.58-.57,4.87-1.71,1.02-.9,1.66-1.96,1.93-3.19.13-.6.64-1.03,1.25-1.03h4.85c.79,0,1.4.71,1.27,1.48-.28,1.62-.9,3.15-1.88,4.59-1.27,1.88-2.99,3.37-5.16,4.46s-4.51,1.64-7.03,1.64c-4.88,0-8.74-1.58-11.6-4.74s-4.29-7.52-4.29-13.08v-.81c0-5.31,1.42-9.55,4.25-12.75s6.7-4.79,11.6-4.79c4.15,0,7.52,1.21,10.14,3.63,2.29,2.12,3.62,4.81,4,8.09.09.76-.51,1.43-1.27,1.43h-4.86c-.62,0-1.15-.46-1.25-1.07-.25-1.52-.9-2.81-1.94-3.86-1.28-1.29-2.91-1.93-4.88-1.93-2.54,0-4.49.92-5.87,2.76s-2.07,4.62-2.09,8.36v1.26c0,3.78.68,6.6,2.05,8.46,1.36,1.86,3.33,2.79,5.91,2.79Z"/>
  <path class="cls-1" d="M444.23,433.2c0,1.05,1.21,1.69,2.04,1.05,2.17-1.67,4.72-2.5,7.66-2.5,7.43,0,11.2,4.24,11.31,12.73v21.51c0,.7-.57,1.28-1.28,1.28h-5.28c-.7,0-1.28-.57-1.28-1.28v-21.22c0-2.41-.52-4.11-1.56-5.11s-2.57-1.5-4.59-1.5c-3.02,0-5.3,1.29-6.85,3.88-.12.2-.18.43-.18.67v23.28c0,.7-.57,1.28-1.28,1.28h-5.28c-.7,0-1.28-.57-1.28-1.28v-46.95c0-.7.57-1.28,1.28-1.28h5.28c.7,0,1.28.57,1.28,1.28v14.16Z"/>
  <path class="cls-2" d="M295.17,432.38l-.05-.63-.63-.05c-3.89-.33-7.45-.43-10.59-.31-3.16.12-6.01.45-8.47.97-2.49.53-4.67,1.25-6.49,2.14-1.84.91-3.41,2.01-4.67,3.28-1.92,1.94-3.33,4.05-4.18,6.27-.85,2.21-1.27,4.47-1.26,6.73.01,2.27.49,4.5,1.42,6.62.93,2.11,2.22,4,3.84,5.6,1.63,1.61,3.58,2.88,5.81,3.79,2.2.89,4.48,1.34,6.78,1.34h.1c2.23-.01,4.45-.47,6.58-1.36,2.13-.89,4.17-2.31,6.05-4.22,1.3-1.31,2.39-2.95,3.26-4.88.86-1.9,1.53-4.14,1.99-6.67.46-2.5.73-5.34.82-8.44.09-3.09-.02-6.52-.32-10.19ZM273.69,462.14c-.44-.11-.88-.24-1.31-.41-.62-.24-.97-.92-.78-1.56.87-2.91,2.07-5.52,3.57-7.78,2.29-3.45,2.38-4.47,1.75-5.06-.67-.63-1.71-.25-3.99,1.47-2.02,1.53-3.68,4.17-5.02,6.63-.49.89-1.77.88-2.24-.02-.03-.05-.05-.1-.08-.16-.73-1.42-1.1-3.11-1.11-5.02,0-1.32.26-2.71.81-4.14.54-1.42,1.56-2.89,3.02-4.37,1.12-1.13,2.59-2.04,4.38-2.7,1.84-.68,3.81-1.19,5.86-1.5,2.06-.32,4.16-.49,6.25-.52,1.34-.02,2.61-.02,3.79,0,.68.01,1.24.55,1.26,1.23.09,2.72.05,5.14-.13,7.21-.22,2.52-.56,4.7-1.01,6.47-.44,1.74-.96,3.17-1.56,4.23-.6,1.06-1.19,1.89-1.76,2.47-1.33,1.35-2.74,2.34-4.2,2.95-1.46.61-2.95.92-4.43.93-1.05,0-2.07-.11-3.06-.35Z"/>
</svg>